<?xml version="1.0" encoding="UTF-8" standalone="no"?>
<!DOCTYPE svg PUBLIC "-//W3C//DTD SVG 1.1//EN" "http://www.w3.org/Graphics/SVG/1.1/DTD/svg11.dtd">
<svg width="100%" height="100%" viewBox="0 0 64 64" version="1.1" xmlns="http://www.w3.org/2000/svg" xmlns:xlink="http://www.w3.org/1999/xlink" xml:space="preserve" xmlns:serif="http://www.serif.com/" style="fill-rule:evenodd;clip-rule:evenodd;stroke-linejoin:round;stroke-miterlimit:2;">
    <rect x="0" y="0" width="64" height="64"/>
    <g transform="matrix(0.82667,0,0,0.82667,-195.333905,-185.195213)">
        <path d="M277.258,251.116C277.258,251.799 276.703,252.354 276.021,252.354L250.573,252.354C249.89,252.354 249.337,251.799 249.337,251.116L249.337,231.777C249.337,231.095 249.89,230.54 250.573,230.54L276.021,230.54C276.703,230.54 277.258,231.095 277.258,231.777L277.258,251.116ZM304.574,248.732C305.348,248.525 306.691,248.167 307.33,247.988C308.088,247.776 308.213,247.44 307.984,246.721C304.703,236.428 299.105,228.611 289.102,225.34C288.342,225.091 287.881,225.261 287.592,226.122C287.385,226.734 287.307,227.372 287.334,228.207C287.363,229.077 287.563,229.425 287.938,229.767C295.445,236.667 298.49,241.428 299.395,252.569C299.977,259.731 302.559,272.938 304.521,278.717C305.877,282.708 302.732,287.139 298.377,287.139C294.811,287.139 291.91,284.238 291.91,280.672L291.91,262.059C291.91,256.922 287.699,253.251 283.254,253.258L282.201,253.258L282.201,229.74C282.201,227.35 280.262,225.412 277.873,225.412L248.354,225.412C245.963,225.412 244.025,227.35 244.025,229.74L244.025,293.687C244.025,294.37 243.472,294.907 242.789,294.907L241.446,294.907C240.763,294.907 240.209,295.444 240.209,296.128L240.209,298.999C240.209,299.682 240.763,300.235 241.446,300.235L284.779,300.235C285.463,300.235 286.018,299.682 286.018,298.999L286.018,296.128C286.018,295.444 285.463,294.907 284.779,294.907L283.438,294.907C282.754,294.907 282.201,294.37 282.201,293.687L282.201,258.16L282.928,258.16C285.816,258.16 286.963,260.472 286.963,262.059L286.963,280.672C286.963,286.975 292.074,292.087 298.377,292.087C305.652,292.087 311.67,285.049 309.244,277.249C306.896,269.697 304.324,256.929 304.008,249.447C304.002,249.19 304.182,248.841 304.574,248.732Z" style="fill:white;fill-rule:nonzero;"/>
    </g>
</svg>
